ply
format ascii 1.0
comment Created by Blender 2.80 (sub 75) - www.blender.org, source file: 'Completed.blend'
element vertex 194
property float x
property float y
property float z
property float nx
property float ny
property float nz
property float s
property float t
element face 124
property list uchar uint vertex_indices
end_header
3.344267 8.615828 0.500000 0.098017 -0.000000 0.995185 1.000000 0.500000
3.344267 5.615828 0.500000 0.098017 -0.000000 0.995185 1.000000 1.000000
3.441812 5.615828 0.490393 0.098017 -0.000000 0.995185 0.968750 1.000000
3.441812 8.615828 0.490393 0.098017 -0.000000 0.995185 0.968750 0.500000
3.441812 8.615828 0.490393 0.290285 -0.000000 0.956940 0.968750 0.500000
3.441812 5.615828 0.490393 0.290285 -0.000000 0.956940 0.968750 1.000000
3.535609 5.615828 0.461940 0.290285 -0.000000 0.956940 0.937500 1.000000
3.535609 8.615828 0.461940 0.290285 -0.000000 0.956940 0.937500 0.500000
3.535609 8.615828 0.461940 0.471397 -0.000000 0.881921 0.937500 0.500000
3.535609 5.615828 0.461940 0.471397 -0.000000 0.881921 0.937500 1.000000
3.622052 5.615828 0.415735 0.471397 -0.000000 0.881921 0.906250 1.000000
3.622052 8.615828 0.415735 0.471397 -0.000000 0.881921 0.906250 0.500000
3.622052 8.615828 0.415735 0.634393 -0.000000 0.773010 0.906250 0.500000
3.622052 5.615828 0.415735 0.634393 -0.000000 0.773010 0.906250 1.000000
3.697820 5.615828 0.353553 0.634393 -0.000000 0.773010 0.875000 1.000000
3.697820 8.615828 0.353553 0.634393 -0.000000 0.773010 0.875000 0.500000
3.697820 8.615828 0.353553 0.773010 -0.000000 0.634394 0.875000 0.500000
3.697820 5.615828 0.353553 0.773010 -0.000000 0.634394 0.875000 1.000000
3.760002 5.615828 0.277785 0.773010 -0.000000 0.634394 0.843750 1.000000
3.760002 8.615828 0.277785 0.773010 -0.000000 0.634394 0.843750 0.500000
3.760002 8.615828 0.277785 0.881921 -0.000000 0.471397 0.843750 0.500000
3.760002 5.615828 0.277785 0.881921 -0.000000 0.471397 0.843750 1.000000
3.806207 5.615828 0.191342 0.881921 -0.000000 0.471397 0.812500 1.000000
3.760002 8.615828 0.277785 0.881921 -0.000000 0.471398 0.843750 0.500000
3.806207 5.615828 0.191342 0.881921 -0.000000 0.471398 0.812500 1.000000
3.806207 8.615828 0.191342 0.881921 -0.000000 0.471398 0.812500 0.500000
3.806207 8.615828 0.191342 0.956940 -0.000000 0.290285 0.812500 0.500000
3.806207 5.615828 0.191342 0.956940 -0.000000 0.290285 0.812500 1.000000
3.834660 5.615828 0.097545 0.956940 -0.000000 0.290285 0.781250 1.000000
3.834660 8.615828 0.097545 0.956940 -0.000000 0.290285 0.781250 0.500000
3.834660 8.615828 0.097545 0.995185 -0.000000 0.098017 0.781250 0.500000
3.834660 5.615828 0.097545 0.995185 -0.000000 0.098017 0.781250 1.000000
3.844267 5.615828 -0.000000 0.995185 -0.000000 0.098017 0.750000 1.000000
3.844267 8.615828 0.000000 0.995185 -0.000000 0.098017 0.750000 0.500000
3.844267 8.615828 0.000000 0.995185 0.000000 -0.098017 0.750000 0.500000
3.844267 5.615828 -0.000000 0.995185 0.000000 -0.098017 0.750000 1.000000
3.834660 5.615828 -0.097545 0.995185 0.000000 -0.098017 0.718750 1.000000
3.834660 8.615828 -0.097545 0.995185 0.000000 -0.098017 0.718750 0.500000
3.834660 8.615828 -0.097545 0.956940 0.000000 -0.290285 0.718750 0.500000
3.834660 5.615828 -0.097545 0.956940 0.000000 -0.290285 0.718750 1.000000
3.806207 5.615828 -0.191342 0.956940 0.000000 -0.290285 0.687500 1.000000
3.806207 8.615828 -0.191342 0.956940 0.000000 -0.290285 0.687500 0.500000
3.806207 8.615828 -0.191342 0.881921 0.000000 -0.471397 0.687500 0.500000
3.806207 5.615828 -0.191342 0.881921 0.000000 -0.471397 0.687500 1.000000
3.760002 5.615828 -0.277785 0.881921 0.000000 -0.471397 0.656250 1.000000
3.760002 8.615828 -0.277785 0.881921 0.000000 -0.471397 0.656250 0.500000
3.760002 8.615828 -0.277785 0.773010 0.000000 -0.634394 0.656250 0.500000
3.760002 5.615828 -0.277785 0.773010 0.000000 -0.634394 0.656250 1.000000
3.697820 5.615828 -0.353553 0.773010 0.000000 -0.634394 0.625000 1.000000
3.697820 8.615828 -0.353553 0.773010 0.000000 -0.634394 0.625000 0.500000
3.697820 8.615828 -0.353553 0.634394 0.000000 -0.773010 0.625000 0.500000
3.697820 5.615828 -0.353553 0.634394 0.000000 -0.773010 0.625000 1.000000
3.622052 5.615828 -0.415735 0.634394 0.000000 -0.773010 0.593750 1.000000
3.622052 8.615828 -0.415735 0.634394 0.000000 -0.773010 0.593750 0.500000
3.622052 8.615828 -0.415735 0.471397 0.000000 -0.881921 0.593750 0.500000
3.622052 5.615828 -0.415735 0.471397 0.000000 -0.881921 0.593750 1.000000
3.535609 5.615828 -0.461940 0.471397 0.000000 -0.881921 0.562500 1.000000
3.535609 8.615828 -0.461940 0.471397 0.000000 -0.881921 0.562500 0.500000
3.535609 8.615828 -0.461940 0.290285 0.000000 -0.956940 0.562500 0.500000
3.535609 5.615828 -0.461940 0.290285 0.000000 -0.956940 0.562500 1.000000
3.441812 5.615828 -0.490393 0.290285 0.000000 -0.956940 0.531250 1.000000
3.441812 8.615828 -0.490393 0.290285 0.000000 -0.956940 0.531250 0.500000
3.441812 8.615828 -0.490393 0.098017 0.000000 -0.995185 0.531250 0.500000
3.441812 5.615828 -0.490393 0.098017 0.000000 -0.995185 0.531250 1.000000
3.344267 5.615828 -0.500000 0.098017 0.000000 -0.995185 0.500000 1.000000
3.344267 8.615828 -0.500000 0.098017 0.000000 -0.995185 0.500000 0.500000
3.344267 8.615828 -0.500000 -0.098018 0.000000 -0.995185 0.500000 0.500000
3.344267 5.615828 -0.500000 -0.098018 0.000000 -0.995185 0.500000 1.000000
3.246722 5.615828 -0.490393 -0.098018 0.000000 -0.995185 0.468750 1.000000
3.246722 8.615828 -0.490393 -0.098018 0.000000 -0.995185 0.468750 0.500000
3.246722 8.615828 -0.490393 -0.290285 0.000000 -0.956940 0.468750 0.500000
3.246722 5.615828 -0.490393 -0.290285 0.000000 -0.956940 0.468750 1.000000
3.152925 5.615828 -0.461940 -0.290285 0.000000 -0.956940 0.437500 1.000000
3.152925 8.615828 -0.461940 -0.290285 0.000000 -0.956940 0.437500 0.500000
3.152925 8.615828 -0.461940 -0.471397 0.000000 -0.881921 0.437500 0.500000
3.152925 5.615828 -0.461940 -0.471397 0.000000 -0.881921 0.437500 1.000000
3.066482 5.615828 -0.415735 -0.471397 0.000000 -0.881921 0.406250 1.000000
3.066482 8.615828 -0.415735 -0.471397 0.000000 -0.881921 0.406250 0.500000
3.066482 8.615828 -0.415735 -0.634394 0.000000 -0.773010 0.406250 0.500000
3.066482 5.615828 -0.415735 -0.634394 0.000000 -0.773010 0.406250 1.000000
2.990713 5.615828 -0.353553 -0.634394 0.000000 -0.773010 0.375000 1.000000
2.990713 8.615828 -0.353553 -0.634394 0.000000 -0.773010 0.375000 0.500000
2.990713 8.615828 -0.353553 -0.773010 0.000000 -0.634393 0.375000 0.500000
2.990713 5.615828 -0.353553 -0.773010 0.000000 -0.634393 0.375000 1.000000
2.928532 5.615828 -0.277785 -0.773010 0.000000 -0.634393 0.343750 1.000000
2.928532 8.615828 -0.277785 -0.773010 0.000000 -0.634393 0.343750 0.500000
2.928532 8.615828 -0.277785 -0.881922 0.000000 -0.471395 0.343750 0.500000
2.928532 5.615828 -0.277785 -0.881922 0.000000 -0.471395 0.343750 1.000000
2.882327 5.615828 -0.191341 -0.881922 0.000000 -0.471395 0.312500 1.000000
2.882327 8.615828 -0.191341 -0.881922 0.000000 -0.471395 0.312500 0.500000
2.882327 8.615828 -0.191341 -0.956940 0.000000 -0.290285 0.312500 0.500000
2.882327 5.615828 -0.191341 -0.956940 0.000000 -0.290285 0.312500 1.000000
2.853874 5.615828 -0.097545 -0.956940 0.000000 -0.290285 0.281250 1.000000
2.853874 8.615828 -0.097545 -0.956940 0.000000 -0.290285 0.281250 0.500000
2.853874 8.615828 -0.097545 -0.995185 0.000000 -0.098017 0.281250 0.500000
2.853874 5.615828 -0.097545 -0.995185 0.000000 -0.098017 0.281250 1.000000
2.844267 5.615828 0.000000 -0.995185 0.000000 -0.098017 0.250000 1.000000
2.844267 8.615828 0.000001 -0.995185 0.000000 -0.098017 0.250000 0.500000
2.844267 8.615828 0.000001 -0.995185 -0.000000 0.098019 0.250000 0.500000
2.844267 5.615828 0.000000 -0.995185 -0.000000 0.098019 0.250000 1.000000
2.853874 5.615828 0.097546 -0.995185 -0.000000 0.098019 0.218750 1.000000
2.853874 8.615828 0.097546 -0.995185 -0.000000 0.098019 0.218750 0.500000
2.853874 8.615828 0.097546 -0.956940 -0.000000 0.290285 0.218750 0.500000
2.853874 5.615828 0.097546 -0.956940 -0.000000 0.290285 0.218750 1.000000
2.882327 5.615828 0.191342 -0.956940 -0.000000 0.290285 0.187500 1.000000
2.882327 8.615828 0.191342 -0.956940 -0.000000 0.290285 0.187500 0.500000
2.882327 8.615828 0.191342 -0.881921 -0.000000 0.471397 0.187500 0.500000
2.882327 5.615828 0.191342 -0.881921 -0.000000 0.471397 0.187500 1.000000
2.928532 5.615828 0.277786 -0.881921 -0.000000 0.471397 0.156250 1.000000
2.928532 8.615828 0.277786 -0.881921 -0.000000 0.471397 0.156250 0.500000
2.928532 8.615828 0.277786 -0.773009 -0.000000 0.634395 0.156250 0.500000
2.928532 5.615828 0.277786 -0.773009 -0.000000 0.634395 0.156250 1.000000
2.990714 5.615828 0.353554 -0.773009 -0.000000 0.634395 0.125000 1.000000
2.990714 8.615828 0.353554 -0.773009 -0.000000 0.634395 0.125000 0.500000
2.990714 8.615828 0.353554 -0.634393 -0.000000 0.773011 0.125000 0.500000
2.990714 5.615828 0.353554 -0.634393 -0.000000 0.773011 0.125000 1.000000
3.066482 5.615828 0.415735 -0.634393 -0.000000 0.773011 0.093750 1.000000
3.066482 8.615828 0.415735 -0.634393 -0.000000 0.773011 0.093750 0.500000
3.066482 8.615828 0.415735 -0.471395 -0.000000 0.881922 0.093750 0.500000
3.066482 5.615828 0.415735 -0.471395 -0.000000 0.881922 0.093750 1.000000
3.152926 5.615828 0.461940 -0.471395 -0.000000 0.881922 0.062500 1.000000
3.152926 8.615828 0.461940 -0.471395 -0.000000 0.881922 0.062500 0.500000
3.535609 5.615828 0.461940 0.000000 -1.000000 0.000000 0.341844 0.471731
3.441812 5.615828 0.490393 0.000000 -1.000000 0.000000 0.296822 0.485388
3.344267 5.615828 0.500000 0.000000 -1.000000 0.000000 0.250000 0.490000
3.246722 5.615828 0.490393 0.000000 -1.000000 0.000000 0.203179 0.485389
3.152926 5.615828 0.461940 0.000000 -1.000000 0.000000 0.158156 0.471731
3.066482 5.615828 0.415735 0.000000 -1.000000 0.000000 0.116663 0.449553
2.990714 5.615828 0.353554 0.000000 -1.000000 0.000000 0.080295 0.419706
2.928532 5.615828 0.277786 0.000000 -1.000000 0.000000 0.050447 0.383337
2.882327 5.615828 0.191342 0.000000 -1.000000 0.000000 0.028269 0.341844
2.853874 5.615828 0.097546 0.000000 -1.000000 0.000000 0.014612 0.296822
2.844267 5.615828 0.000000 0.000000 -1.000000 0.000000 0.010000 0.250000
2.853874 5.615828 -0.097545 0.000000 -1.000000 0.000000 0.014611 0.203179
2.882327 5.615828 -0.191341 0.000000 -1.000000 0.000000 0.028269 0.158156
2.928532 5.615828 -0.277785 0.000000 -1.000000 0.000000 0.050447 0.116663
2.990713 5.615828 -0.353553 0.000000 -1.000000 0.000000 0.080294 0.080294
3.066482 5.615828 -0.415735 0.000000 -1.000000 0.000000 0.116663 0.050447
3.152925 5.615828 -0.461940 0.000000 -1.000000 0.000000 0.158156 0.028269
3.246722 5.615828 -0.490393 0.000000 -1.000000 0.000000 0.203178 0.014612
3.344267 5.615828 -0.500000 0.000000 -1.000000 0.000000 0.250000 0.010000
3.441812 5.615828 -0.490393 0.000000 -1.000000 0.000000 0.296822 0.014612
3.535609 5.615828 -0.461940 0.000000 -1.000000 0.000000 0.341844 0.028269
3.622052 5.615828 -0.415735 0.000000 -1.000000 0.000000 0.383337 0.050447
3.697820 5.615828 -0.353553 0.000000 -1.000000 0.000000 0.419706 0.080294
3.760002 5.615828 -0.277785 0.000000 -1.000000 0.000000 0.449553 0.116663
3.806207 5.615828 -0.191342 0.000000 -1.000000 0.000000 0.471731 0.158156
3.834660 5.615828 -0.097545 0.000000 -1.000000 0.000000 0.485388 0.203178
3.844267 5.615828 -0.000000 0.000000 -1.000000 0.000000 0.490000 0.250000
3.834660 5.615828 0.097545 0.000000 -1.000000 0.000000 0.485388 0.296822
3.806207 5.615828 0.191342 0.000000 -1.000000 0.000000 0.471731 0.341844
3.760002 5.615828 0.277785 0.000000 -1.000000 0.000000 0.449553 0.383337
3.697820 5.615828 0.353553 0.000000 -1.000000 0.000000 0.419706 0.419706
3.622052 5.615828 0.415735 0.000000 -1.000000 0.000000 0.383337 0.449553
3.152926 8.615828 0.461940 -0.290283 -0.000000 0.956941 0.062500 0.500000
3.152926 5.615828 0.461940 -0.290283 -0.000000 0.956941 0.062500 1.000000
3.246722 5.615828 0.490393 -0.290283 -0.000000 0.956941 0.031250 1.000000
3.246722 8.615828 0.490393 -0.290283 -0.000000 0.956941 0.031250 0.500000
3.246722 8.615828 0.490393 -0.098017 -0.000000 0.995185 0.031250 0.500000
3.246722 5.615828 0.490393 -0.098017 -0.000000 0.995185 0.031250 1.000000
3.344267 5.615828 0.500000 -0.098017 -0.000000 0.995185 0.000000 1.000000
3.344267 8.615828 0.500000 -0.098017 -0.000000 0.995185 0.000000 0.500000
3.246722 8.615828 0.490393 0.000000 1.000000 0.000000 0.703179 0.485389
3.344267 8.615828 0.500000 0.000000 1.000000 0.000000 0.750000 0.490000
3.441812 8.615828 0.490393 0.000000 1.000000 0.000000 0.796822 0.485388
3.535609 8.615828 0.461940 0.000000 1.000000 0.000000 0.841844 0.471731
3.622052 8.615828 0.415735 0.000000 1.000000 0.000000 0.883337 0.449553
3.697820 8.615828 0.353553 0.000000 1.000000 0.000000 0.919706 0.419706
3.760002 8.615828 0.277785 0.000000 1.000000 0.000000 0.949553 0.383337
3.806207 8.615828 0.191342 0.000000 1.000000 0.000000 0.971731 0.341844
3.834660 8.615828 0.097545 0.000000 1.000000 0.000000 0.985388 0.296822
3.844267 8.615828 0.000000 0.000000 1.000000 -0.000000 0.990000 0.250000
3.834660 8.615828 -0.097545 0.000000 1.000000 -0.000000 0.985388 0.203178
3.806207 8.615828 -0.191342 0.000000 1.000000 0.000000 0.971731 0.158156
3.760002 8.615828 -0.277785 0.000000 1.000000 0.000000 0.949553 0.116663
3.697820 8.615828 -0.353553 0.000000 1.000000 0.000000 0.919706 0.080294
3.622052 8.615828 -0.415735 0.000000 1.000000 0.000000 0.883337 0.050447
3.535609 8.615828 -0.461940 0.000000 1.000000 0.000000 0.841844 0.028269
3.441812 8.615828 -0.490393 0.000000 1.000000 0.000000 0.796822 0.014612
3.344267 8.615828 -0.500000 -0.000000 1.000000 0.000000 0.750000 0.010000
3.246722 8.615828 -0.490393 -0.000000 1.000000 0.000000 0.703178 0.014612
3.152925 8.615828 -0.461940 0.000000 1.000000 0.000000 0.658156 0.028269
3.066482 8.615828 -0.415735 0.000000 1.000000 0.000000 0.616663 0.050447
2.990713 8.615828 -0.353553 0.000000 1.000000 0.000000 0.580294 0.080294
2.928532 8.615828 -0.277785 0.000000 1.000000 0.000000 0.550447 0.116663
2.882327 8.615828 -0.191341 0.000000 1.000000 0.000000 0.528269 0.158156
2.853874 8.615828 -0.097545 0.000000 1.000000 0.000000 0.514611 0.203179
2.844267 8.615828 0.000001 0.000000 1.000000 0.000000 0.510000 0.250000
2.853874 8.615828 0.097546 0.000000 1.000000 0.000000 0.514612 0.296822
2.882327 8.615828 0.191342 0.000000 1.000000 0.000000 0.528269 0.341844
2.928532 8.615828 0.277786 0.000000 1.000000 0.000000 0.550447 0.383337
2.990714 8.615828 0.353554 0.000000 1.000000 0.000000 0.580295 0.419706
3.066482 8.615828 0.415735 0.000000 1.000000 0.000000 0.616663 0.449553
3.152926 8.615828 0.461940 0.000000 1.000000 0.000000 0.658156 0.471731
3 0 1 2
3 0 2 3
3 4 5 6
3 4 6 7
3 8 9 10
3 8 10 11
3 12 13 14
3 12 14 15
3 16 17 18
3 16 18 19
3 20 21 22
3 23 24 25
3 26 27 28
3 26 28 29
3 30 31 32
3 30 32 33
3 34 35 36
3 34 36 37
3 38 39 40
3 38 40 41
3 42 43 44
3 42 44 45
3 46 47 48
3 46 48 49
3 50 51 52
3 50 52 53
3 54 55 56
3 54 56 57
3 58 59 60
3 58 60 61
3 62 63 64
3 62 64 65
3 66 67 68
3 66 68 69
3 70 71 72
3 70 72 73
3 74 75 76
3 74 76 77
3 78 79 80
3 78 80 81
3 82 83 84
3 82 84 85
3 86 87 88
3 86 88 89
3 90 91 92
3 90 92 93
3 94 95 96
3 94 96 97
3 98 99 100
3 98 100 101
3 102 103 104
3 102 104 105
3 106 107 108
3 106 108 109
3 110 111 112
3 110 112 113
3 114 115 116
3 114 116 117
3 118 119 120
3 118 120 121
3 122 123 124
3 124 125 126
3 126 127 128
3 128 129 130
3 130 131 132
3 132 133 134
3 134 135 136
3 136 137 138
3 138 139 140
3 140 141 142
3 142 143 144
3 144 145 146
3 146 147 148
3 148 149 150
3 150 151 152
3 152 153 122
3 122 124 126
3 126 128 130
3 130 132 134
3 134 136 138
3 138 140 142
3 142 144 146
3 146 148 150
3 150 152 122
3 122 126 130
3 130 134 138
3 138 142 146
3 146 150 122
3 122 130 138
3 138 146 122
3 154 155 156
3 154 156 157
3 158 159 160
3 158 160 161
3 162 163 164
3 164 165 166
3 166 167 168
3 168 169 170
3 170 171 172
3 172 173 174
3 174 175 176
3 176 177 178
3 178 179 180
3 180 181 182
3 182 183 184
3 184 185 186
3 186 187 188
3 188 189 190
3 190 191 192
3 192 193 162
3 162 164 166
3 166 168 170
3 170 172 174
3 174 176 178
3 178 180 182
3 182 184 186
3 186 188 190
3 190 192 162
3 162 166 170
3 170 174 178
3 178 182 186
3 186 190 162
3 162 170 178
3 178 186 162
