ply
format ascii 1.0
comment Created by Blender 2.80 (sub 75) - www.blender.org, source file: 'EinsteinFridgeV2WaterholesAndFillHoles.blend'
element vertex 602
property float x
property float y
property float z
property float nx
property float ny
property float nz
property float s
property float t
element face 332
property list uchar uint vertex_indices
end_header
3.344267 8.615828 0.500000 0.098017 -0.000000 0.995185 1.000000 0.500000
3.344267 5.615828 0.500000 0.098017 -0.000000 0.995185 1.000000 1.000000
3.441812 5.615828 0.490393 0.098017 -0.000000 0.995185 0.968750 1.000000
3.441812 8.615828 0.490393 0.098017 -0.000000 0.995185 0.968750 0.500000
3.441812 8.615828 0.490393 0.290285 -0.000000 0.956940 0.968750 0.500000
3.441812 5.615828 0.490393 0.290285 -0.000000 0.956940 0.968750 1.000000
3.535609 5.615828 0.461940 0.290285 -0.000000 0.956940 0.937500 1.000000
3.535609 8.615828 0.461940 0.290285 -0.000000 0.956940 0.937500 0.500000
3.535609 8.615828 0.461940 0.471397 -0.000000 0.881921 0.937500 0.500000
3.535609 5.615828 0.461940 0.471397 -0.000000 0.881921 0.937500 1.000000
3.622052 5.615828 0.415735 0.471397 -0.000000 0.881921 0.906250 1.000000
3.622052 8.615828 0.415735 0.471397 -0.000000 0.881921 0.906250 0.500000
3.622052 8.615828 0.415735 0.634393 -0.000000 0.773010 0.906250 0.500000
3.622052 5.615828 0.415735 0.634393 -0.000000 0.773010 0.906250 1.000000
3.697820 5.615828 0.353553 0.634393 -0.000000 0.773010 0.875000 1.000000
3.697820 8.615828 0.353553 0.634393 -0.000000 0.773010 0.875000 0.500000
3.697820 8.615828 0.353553 0.773010 -0.000000 0.634394 0.875000 0.500000
3.697820 5.615828 0.353553 0.773010 -0.000000 0.634394 0.875000 1.000000
3.760002 5.615828 0.277785 0.773010 -0.000000 0.634394 0.843750 1.000000
3.760002 8.615828 0.277785 0.773010 -0.000000 0.634394 0.843750 0.500000
3.760002 5.615828 0.277785 0.881921 -0.000000 0.471397 0.843750 1.000000
3.806207 5.615828 0.191342 0.881921 -0.000000 0.471397 0.812500 1.000000
3.806207 7.415812 0.191342 0.881921 -0.000000 0.471397 0.812500 0.700003
3.760002 5.615828 0.277785 0.881917 0.000000 0.471405 0.843750 1.000000
3.806207 7.415812 0.191342 0.881917 0.000000 0.471405 0.812500 0.700003
3.798275 7.434416 0.206181 0.881917 0.000000 0.471405 0.817864 0.696902
3.806207 7.725969 0.191342 0.881921 -0.000000 0.471398 0.812500 0.648310
3.806207 8.615828 0.191342 0.881921 -0.000000 0.471398 0.812500 0.500000
3.760002 8.615828 0.277785 0.881921 -0.000000 0.471398 0.843750 0.500000
3.796703 7.704715 0.209121 0.881919 -0.000001 0.471401 0.818928 0.651852
3.806207 7.725969 0.191342 0.881919 -0.000001 0.471401 0.812500 0.648310
3.760002 8.615828 0.277785 0.881919 -0.000001 0.471401 0.843750 0.500000
3.760002 5.615828 0.277785 0.881924 -0.000000 0.471391 0.843750 1.000000
3.798275 7.434416 0.206181 0.881924 -0.000000 0.471391 0.817864 0.696902
3.786080 7.474778 0.228997 0.881924 -0.000000 0.471391 0.826113 0.690175
3.760002 5.615828 0.277785 0.881922 -0.000000 0.471394 0.843750 1.000000
3.786080 7.474778 0.228997 0.881922 -0.000000 0.471394 0.826113 0.690175
3.778839 7.520668 0.242543 0.881922 -0.000000 0.471394 0.831009 0.682527
3.785383 7.664013 0.230301 0.881921 -0.000000 0.471397 0.826584 0.658636
3.796703 7.704715 0.209121 0.881921 -0.000000 0.471397 0.818928 0.651852
3.760002 8.615828 0.277785 0.881921 -0.000000 0.471397 0.843750 0.500000
3.778140 7.618090 0.243851 0.881921 -0.000000 0.471398 0.831483 0.666290
3.785383 7.664013 0.230301 0.881921 -0.000000 0.471398 0.826584 0.658636
3.760002 5.615828 0.277785 0.881912 0.000000 0.471414 0.843750 1.000000
3.778839 7.520668 0.242543 0.881912 0.000000 0.471414 0.831009 0.682527
3.775752 7.568873 0.248318 0.881912 0.000000 0.471414 0.833097 0.674492
3.775752 7.568873 0.248318 0.881923 0.000000 0.471394 0.833097 0.674492
3.778140 7.618090 0.243851 0.881923 0.000000 0.471394 0.831483 0.666290
3.760002 8.615828 0.277785 0.881923 0.000000 0.471394 0.843750 0.500000
3.760002 8.615828 0.277785 0.881922 -0.000000 0.471396 0.843750 0.500000
3.760002 5.615828 0.277785 0.881922 -0.000000 0.471396 0.843750 1.000000
3.775752 7.568873 0.248318 0.881922 -0.000000 0.471396 0.833097 0.674492
3.834660 8.615828 0.097545 0.956940 -0.000000 0.290285 0.781250 0.500000
3.806207 8.615828 0.191342 0.956940 -0.000000 0.290285 0.812500 0.500000
3.806207 7.725969 0.191342 0.956940 -0.000000 0.290285 0.812500 0.648310
3.834660 8.615828 0.097545 0.956940 0.000000 0.290286 0.781250 0.500000
3.806207 7.725969 0.191342 0.956940 0.000000 0.290286 0.812500 0.648310
3.810655 7.743974 0.176677 0.956940 0.000000 0.290286 0.807614 0.645309
3.821166 7.773434 0.142029 0.956940 -0.000000 0.290287 0.796071 0.640399
3.834660 7.798924 0.097545 0.956940 -0.000000 0.290287 0.781250 0.636151
3.834660 8.615828 0.097545 0.956940 -0.000000 0.290287 0.781250 0.500000
3.810655 7.743974 0.176677 0.956941 -0.000000 0.290281 0.807614 0.645309
3.821166 7.773434 0.142029 0.956941 -0.000000 0.290281 0.796071 0.640399
3.834660 8.615828 0.097545 0.956941 -0.000000 0.290281 0.781250 0.500000
3.844267 8.615828 0.000000 0.995185 -0.000000 0.098017 0.750000 0.500000
3.834660 8.615828 0.097545 0.995185 -0.000000 0.098017 0.781250 0.500000
3.834660 7.798924 0.097545 0.995185 -0.000000 0.098017 0.781250 0.636151
3.839437 7.812902 0.049038 0.995185 -0.000000 0.098018 0.765710 0.633821
3.844267 7.818834 0.000000 0.995185 -0.000000 0.098018 0.750000 0.632832
3.844267 8.615828 0.000000 0.995185 -0.000000 0.098018 0.750000 0.500000
3.834660 7.798924 0.097545 0.995185 -0.000000 0.098016 0.781250 0.636151
3.839437 7.812902 0.049038 0.995185 -0.000000 0.098016 0.765710 0.633821
3.844267 8.615828 0.000000 0.995185 -0.000000 0.098016 0.750000 0.500000
3.834660 8.615828 -0.097545 0.995185 0.000000 -0.098017 0.718750 0.500000
3.844267 8.615828 0.000000 0.995185 0.000000 -0.098017 0.750000 0.500000
3.844267 7.818834 0.000000 0.995185 0.000000 -0.098017 0.750000 0.632832
3.839493 7.814663 -0.048471 0.995185 0.000000 -0.098018 0.734472 0.633527
3.834660 7.797412 -0.097545 0.995185 0.000000 -0.098018 0.718750 0.636403
3.834660 8.615828 -0.097545 0.995185 0.000000 -0.098018 0.718750 0.500000
3.844267 7.818834 0.000000 0.995185 0.000000 -0.098015 0.750000 0.632832
3.839493 7.814663 -0.048471 0.995185 0.000000 -0.098015 0.734472 0.633527
3.834660 8.615828 -0.097545 0.995185 0.000000 -0.098015 0.718750 0.500000
3.806207 8.615828 -0.191342 0.956940 0.000000 -0.290285 0.687500 0.500000
3.834660 8.615828 -0.097545 0.956940 0.000000 -0.290285 0.718750 0.500000
3.834660 7.797412 -0.097545 0.956940 0.000000 -0.290285 0.718750 0.636403
3.806207 8.615828 -0.191342 0.956940 -0.000000 -0.290287 0.687500 0.500000
3.834660 7.797412 -0.097545 0.956940 -0.000000 -0.290287 0.718750 0.636403
3.823188 7.776187 -0.135361 0.956940 -0.000000 -0.290287 0.706151 0.639940
3.811818 7.746090 -0.172843 0.956942 0.000000 -0.290280 0.693663 0.644956
3.806207 7.724352 -0.191342 0.956942 0.000000 -0.290280 0.687500 0.648579
3.806207 8.615828 -0.191342 0.956942 0.000000 -0.290280 0.687500 0.500000
3.823188 7.776187 -0.135361 0.956940 -0.000000 -0.290285 0.706151 0.639940
3.811818 7.746090 -0.172843 0.956940 -0.000000 -0.290285 0.693663 0.644956
3.760002 8.615828 -0.277785 0.881921 0.000000 -0.471397 0.656250 0.500000
3.806207 8.615828 -0.191342 0.881921 0.000000 -0.471397 0.687500 0.500000
3.806207 7.724352 -0.191342 0.881921 0.000000 -0.471397 0.687500 0.648579
3.760002 8.615828 -0.277785 0.881920 -0.000000 -0.471400 0.656250 0.500000
3.806207 7.724352 -0.191342 0.881920 -0.000000 -0.471400 0.687500 0.648579
3.799110 7.709198 -0.204618 0.881920 -0.000000 -0.471400 0.682700 0.651105
3.806207 7.414686 -0.191342 0.881921 0.000000 -0.471397 0.687500 0.700190
3.806207 5.615828 -0.191342 0.881921 0.000000 -0.471397 0.687500 1.000000
3.760002 5.615828 -0.277785 0.881921 0.000000 -0.471397 0.656250 1.000000
3.796963 7.437876 -0.208634 0.881920 0.000000 -0.471399 0.681248 0.696325
3.806207 7.414686 -0.191342 0.881920 0.000000 -0.471399 0.687500 0.700190
3.760002 5.615828 -0.277785 0.881920 0.000000 -0.471399 0.656250 1.000000
3.760002 8.615828 -0.277785 0.881920 -0.000000 -0.471398 0.656250 0.500000
3.799110 7.709198 -0.204618 0.881920 -0.000000 -0.471398 0.682700 0.651105
3.786344 7.666328 -0.228502 0.881920 -0.000000 -0.471398 0.674066 0.658250
3.760002 8.615828 -0.277785 0.881924 0.000000 -0.471391 0.656250 0.500000
3.786344 7.666328 -0.228502 0.881924 0.000000 -0.471391 0.674066 0.658250
3.778313 7.617171 -0.243526 0.881924 0.000000 -0.471391 0.668635 0.666443
3.786298 7.474554 -0.228588 0.881922 -0.000000 -0.471394 0.674035 0.690212
3.796963 7.437876 -0.208634 0.881922 -0.000000 -0.471394 0.681248 0.696325
3.760002 5.615828 -0.277785 0.881922 -0.000000 -0.471394 0.656250 1.000000
3.778776 7.521560 -0.242660 0.881922 -0.000000 -0.471396 0.668948 0.682378
3.786298 7.474554 -0.228588 0.881922 -0.000000 -0.471396 0.674035 0.690212
3.760002 5.615828 -0.277785 0.881922 -0.000000 -0.471396 0.656250 1.000000
3.760002 8.615828 -0.277785 0.881923 0.000000 -0.471394 0.656250 0.500000
3.778313 7.617171 -0.243526 0.881923 0.000000 -0.471394 0.668635 0.666443
3.776027 7.569444 -0.247803 0.881923 0.000000 -0.471394 0.667089 0.674397
3.776027 7.569444 -0.247803 0.881921 -0.000000 -0.471397 0.667089 0.674397
3.778776 7.521560 -0.242660 0.881921 -0.000000 -0.471397 0.668948 0.682378
3.776027 7.569444 -0.247803 0.881920 0.000000 -0.471399 0.667089 0.674397
3.760002 8.615828 -0.277785 0.881920 0.000000 -0.471399 0.656250 0.500000
3.760002 8.615828 -0.277785 0.773010 0.000000 -0.634394 0.656250 0.500000
3.760002 5.615828 -0.277785 0.773010 0.000000 -0.634394 0.656250 1.000000
3.697820 5.615828 -0.353553 0.773010 0.000000 -0.634394 0.625000 1.000000
3.697820 8.615828 -0.353553 0.773010 0.000000 -0.634394 0.625000 0.500000
3.697820 8.615828 -0.353553 0.634394 0.000000 -0.773010 0.625000 0.500000
3.697820 5.615828 -0.353553 0.634394 0.000000 -0.773010 0.625000 1.000000
3.622052 5.615828 -0.415735 0.634394 0.000000 -0.773010 0.593750 1.000000
3.622052 8.615828 -0.415735 0.634394 0.000000 -0.773010 0.593750 0.500000
3.622052 8.615828 -0.415735 0.471397 0.000000 -0.881921 0.593750 0.500000
3.622052 5.615828 -0.415735 0.471397 0.000000 -0.881921 0.593750 1.000000
3.535609 5.615828 -0.461940 0.471397 0.000000 -0.881921 0.562500 1.000000
3.535609 8.615828 -0.461940 0.471397 0.000000 -0.881921 0.562500 0.500000
3.535609 8.615828 -0.461940 0.290285 0.000000 -0.956940 0.562500 0.500000
3.535609 5.615828 -0.461940 0.290285 0.000000 -0.956940 0.562500 1.000000
3.441812 5.615828 -0.490393 0.290285 0.000000 -0.956940 0.531250 1.000000
3.441812 8.615828 -0.490393 0.290285 0.000000 -0.956940 0.531250 0.500000
3.441812 8.615828 -0.490393 0.098017 0.000000 -0.995185 0.531250 0.500000
3.441812 5.615828 -0.490393 0.098017 0.000000 -0.995185 0.531250 1.000000
3.344267 5.615828 -0.500000 0.098017 0.000000 -0.995185 0.500000 1.000000
3.344267 8.615828 -0.500000 0.098017 0.000000 -0.995185 0.500000 0.500000
3.344267 8.615828 -0.500000 -0.098018 0.000000 -0.995185 0.500000 0.500000
3.344267 5.615828 -0.500000 -0.098018 0.000000 -0.995185 0.500000 1.000000
3.246722 5.615828 -0.490393 -0.098018 0.000000 -0.995185 0.468750 1.000000
3.246722 8.615828 -0.490393 -0.098018 0.000000 -0.995185 0.468750 0.500000
3.246722 8.615828 -0.490393 -0.290285 0.000000 -0.956940 0.468750 0.500000
3.246722 5.615828 -0.490393 -0.290285 0.000000 -0.956940 0.468750 1.000000
3.152925 5.615828 -0.461940 -0.290285 0.000000 -0.956940 0.437500 1.000000
3.152925 8.615828 -0.461940 -0.290285 0.000000 -0.956940 0.437500 0.500000
3.152925 8.615828 -0.461940 -0.471397 0.000000 -0.881921 0.437500 0.500000
3.152925 5.615828 -0.461940 -0.471397 0.000000 -0.881921 0.437500 1.000000
3.066482 5.615828 -0.415735 -0.471397 0.000000 -0.881921 0.406250 1.000000
3.066482 8.615828 -0.415735 -0.471397 0.000000 -0.881921 0.406250 0.500000
3.066482 8.615828 -0.415735 -0.634394 0.000000 -0.773010 0.406250 0.500000
3.066482 5.615828 -0.415735 -0.634394 0.000000 -0.773010 0.406250 1.000000
2.990713 5.615828 -0.353553 -0.634394 0.000000 -0.773010 0.375000 1.000000
2.990713 8.615828 -0.353553 -0.634394 0.000000 -0.773010 0.375000 0.500000
2.990713 8.615828 -0.353553 -0.773010 0.000000 -0.634393 0.375000 0.500000
2.990713 5.615828 -0.353553 -0.773010 0.000000 -0.634393 0.375000 1.000000
2.928532 5.615828 -0.277785 -0.773010 0.000000 -0.634393 0.343750 1.000000
2.928532 8.615828 -0.277785 -0.773010 0.000000 -0.634393 0.343750 0.500000
2.928532 8.615828 -0.277785 -0.881922 0.000000 -0.471395 0.343750 0.500000
2.928532 5.615828 -0.277785 -0.881922 0.000000 -0.471395 0.343750 1.000000
2.882327 5.615828 -0.191341 -0.881922 0.000000 -0.471395 0.312500 1.000000
2.882327 8.615828 -0.191341 -0.881922 0.000000 -0.471395 0.312500 0.500000
2.882327 8.615828 -0.191341 -0.956940 0.000000 -0.290285 0.312500 0.500000
2.882327 5.615828 -0.191341 -0.956940 0.000000 -0.290285 0.312500 1.000000
2.853874 5.615828 -0.097545 -0.956940 0.000000 -0.290285 0.281250 1.000000
2.853874 5.615828 -0.097545 -0.956942 0.000000 -0.290278 0.281250 1.000000
2.853874 8.374945 -0.097545 -0.956942 0.000000 -0.290278 0.281250 0.540147
2.857630 8.397141 -0.109925 -0.956942 0.000000 -0.290278 0.285375 0.536448
2.853874 5.615828 -0.097545 -0.956937 -0.000000 -0.290295 0.281250 1.000000
2.857630 8.397141 -0.109925 -0.956937 -0.000000 -0.290295 0.285375 0.536448
2.859602 8.420240 -0.116426 -0.956937 -0.000000 -0.290295 0.287541 0.532598
2.853874 8.510457 -0.097545 -0.956940 0.000000 -0.290285 0.281250 0.517562
2.853874 8.615828 -0.097545 -0.956940 0.000000 -0.290285 0.281250 0.500000
2.857572 8.487383 -0.109736 -0.956940 0.000000 -0.290285 0.285312 0.521407
2.859602 8.420240 -0.116426 -0.956940 0.000000 -0.290285 0.287541 0.532598
2.882327 8.615828 -0.191341 -0.956941 0.000001 -0.290282 0.312500 0.500000
2.859602 8.420240 -0.116426 -0.956941 0.000001 -0.290282 0.287541 0.532598
2.860317 8.441474 -0.118784 -0.956941 0.000001 -0.290282 0.288326 0.529059
2.859511 8.464855 -0.116127 -0.956941 0.000002 -0.290281 0.287441 0.525162
2.857572 8.487383 -0.109736 -0.956941 0.000002 -0.290281 0.285312 0.521407
2.882327 8.615828 -0.191341 -0.956941 0.000002 -0.290281 0.312500 0.500000
2.882327 8.615828 -0.191341 -0.956939 -0.000003 -0.290290 0.312500 0.500000
2.860317 8.441474 -0.118784 -0.956939 -0.000003 -0.290290 0.288326 0.529059
2.859511 8.464855 -0.116127 -0.956939 -0.000003 -0.290290 0.287441 0.525162
2.853874 8.615828 -0.097545 -0.995185 0.000000 -0.098016 0.281250 0.500000
2.853874 8.510457 -0.097545 -0.995185 0.000000 -0.098016 0.281250 0.517562
2.852482 8.526988 -0.083412 -0.995185 0.000000 -0.098016 0.276723 0.514807
2.853874 8.615828 -0.097545 -0.995185 -0.000000 -0.098017 0.281250 0.500000
2.852482 8.526988 -0.083412 -0.995185 -0.000000 -0.098017 0.276723 0.514807
2.850747 8.541528 -0.065795 -0.995185 -0.000000 -0.098017 0.271078 0.512383
2.844267 8.562202 0.000001 -0.995185 0.000000 -0.098017 0.250000 0.508938
2.844267 8.615828 0.000001 -0.995185 0.000000 -0.098017 0.250000 0.500000
2.846536 8.559890 -0.023035 -0.995185 0.000000 -0.098016 0.257380 0.509323
2.844267 8.562202 0.000001 -0.995185 0.000000 -0.098016 0.250000 0.508938
2.850747 8.541528 -0.065795 -0.995185 0.000000 -0.098016 0.271078 0.512383
2.848746 8.552460 -0.045475 -0.995185 0.000000 -0.098016 0.264569 0.510561
2.848746 8.552460 -0.045475 -0.995185 -0.000000 -0.098017 0.264569 0.510561
2.846536 8.559890 -0.023035 -0.995185 -0.000000 -0.098017 0.257380 0.509323
2.853874 8.615828 0.097546 -0.995185 -0.000000 0.098019 0.218750 0.500000
2.844267 8.615828 0.000001 -0.995185 -0.000000 0.098019 0.250000 0.500000
2.844267 8.562202 0.000001 -0.995185 -0.000000 0.098019 0.250000 0.508938
2.853874 8.615828 0.097546 -0.995185 0.000008 0.098015 0.218750 0.500000
2.844267 8.562202 0.000001 -0.995185 0.000008 0.098015 0.250000 0.508938
2.846708 8.559703 0.024787 -0.995185 0.000008 0.098015 0.242059 0.509354
2.852622 8.525961 0.084834 -0.995183 -0.000000 0.098031 0.222822 0.514978
2.853874 8.510276 0.097546 -0.995183 -0.000000 0.098031 0.218750 0.517592
2.853874 8.615828 0.097546 -0.995183 -0.000000 0.098031 0.218750 0.500000
2.850777 8.541864 0.066099 -0.995185 0.000002 0.098015 0.228824 0.512327
2.852622 8.525961 0.084834 -0.995185 0.000002 0.098015 0.222822 0.514978
2.853874 8.615828 0.097546 -0.995185 0.000002 0.098015 0.218750 0.500000
2.853874 8.615828 0.097546 -0.995184 -0.000008 0.098027 0.218750 0.500000
2.846708 8.559703 0.024787 -0.995184 -0.000008 0.098027 0.242059 0.509354
2.848736 8.552940 0.045372 -0.995184 -0.000008 0.098027 0.235464 0.510481
2.848736 8.552940 0.045372 -0.995185 0.000003 0.098014 0.235464 0.510481
2.850777 8.541864 0.066099 -0.995185 0.000003 0.098014 0.228824 0.512327
2.853874 8.615828 0.097546 -0.995185 0.000003 0.098014 0.218750 0.500000
2.882327 8.615828 0.191342 -0.956940 -0.000000 0.290285 0.187500 0.500000
2.853874 8.615828 0.097546 -0.956940 -0.000000 0.290285 0.218750 0.500000
2.853874 8.510276 0.097546 -0.956940 -0.000000 0.290285 0.218750 0.517592
2.882327 8.615828 0.191342 -0.956940 0.000001 0.290284 0.187500 0.500000
2.853874 8.510276 0.097546 -0.956940 0.000001 0.290284 0.218750 0.517592
2.857769 8.487763 0.110384 -0.956940 0.000001 0.290284 0.214473 0.521344
2.853874 5.615828 0.097546 -0.956940 -0.000000 0.290285 0.218750 1.000000
2.882327 5.615828 0.191342 -0.956940 -0.000000 0.290285 0.187500 1.000000
2.857651 8.396775 0.109995 -0.956944 -0.000000 0.290272 0.214602 0.536509
2.853874 8.374859 0.097546 -0.956944 -0.000000 0.290272 0.218750 0.540161
2.853874 5.615828 0.097546 -0.956944 -0.000000 0.290272 0.218750 1.000000
2.859379 8.417352 0.115692 -0.956941 -0.000000 0.290284 0.212704 0.533079
2.857651 8.396775 0.109995 -0.956941 -0.000000 0.290284 0.214602 0.536509
2.853874 5.615828 0.097546 -0.956941 -0.000000 0.290284 0.218750 1.000000
2.882327 8.615828 0.191342 -0.956939 -0.000003 0.290288 0.187500 0.500000
2.857769 8.487763 0.110384 -0.956939 -0.000003 0.290288 0.214473 0.521344
2.859635 8.464204 0.116537 -0.956939 -0.000003 0.290288 0.212423 0.525271
2.860268 8.441416 0.118623 -0.956928 -0.000000 0.290325 0.211728 0.529069
2.859379 8.417352 0.115692 -0.956928 -0.000000 0.290325 0.212704 0.533079
2.853874 5.615828 0.097546 -0.956928 -0.000000 0.290325 0.218750 1.000000
2.882327 8.615828 0.191342 -0.956943 0.000004 0.290276 0.187500 0.500000
2.859635 8.464204 0.116537 -0.956943 0.000004 0.290276 0.212423 0.525271
2.860268 8.441416 0.118623 -0.956943 0.000004 0.290276 0.211728 0.529069
2.860268 8.441416 0.118623 -0.956940 -0.000000 0.290285 0.211728 0.529069
2.882327 8.615828 0.191342 -0.881921 -0.000000 0.471397 0.187500 0.500000
2.882327 5.615828 0.191342 -0.881921 -0.000000 0.471397 0.187500 1.000000
2.928532 5.615828 0.277786 -0.881921 -0.000000 0.471397 0.156250 1.000000
2.928532 8.615828 0.277786 -0.881921 -0.000000 0.471397 0.156250 0.500000
2.928532 8.615828 0.277786 -0.773009 -0.000000 0.634395 0.156250 0.500000
2.928532 5.615828 0.277786 -0.773009 -0.000000 0.634395 0.156250 1.000000
2.990714 5.615828 0.353554 -0.773009 -0.000000 0.634395 0.125000 1.000000
2.990714 8.615828 0.353554 -0.773009 -0.000000 0.634395 0.125000 0.500000
2.990714 8.615828 0.353554 -0.634393 -0.000000 0.773011 0.125000 0.500000
2.990714 5.615828 0.353554 -0.634393 -0.000000 0.773011 0.125000 1.000000
3.066482 5.615828 0.415735 -0.634393 -0.000000 0.773011 0.093750 1.000000
3.066482 8.615828 0.415735 -0.634393 -0.000000 0.773011 0.093750 0.500000
3.066482 8.615828 0.415735 -0.471395 -0.000000 0.881922 0.093750 0.500000
3.066482 5.615828 0.415735 -0.471395 -0.000000 0.881922 0.093750 1.000000
3.152926 5.615828 0.461940 -0.471395 -0.000000 0.881922 0.062500 1.000000
3.152926 8.615828 0.461940 -0.471395 -0.000000 0.881922 0.062500 0.500000
3.535609 5.615828 0.461940 0.000000 -1.000000 0.000000 0.341844 0.471731
3.441812 5.615828 0.490393 0.000000 -1.000000 0.000000 0.296822 0.485388
3.344267 5.615828 0.500000 0.000000 -1.000000 0.000000 0.250000 0.490000
3.246722 5.615828 0.490393 0.000000 -1.000000 0.000000 0.203179 0.485389
3.152926 5.615828 0.461940 0.000000 -1.000000 0.000000 0.158156 0.471731
3.066482 5.615828 0.415735 0.000000 -1.000000 0.000000 0.116663 0.449553
2.990714 5.615828 0.353554 0.000000 -1.000000 0.000000 0.080295 0.419706
2.928532 5.615828 0.277786 0.000000 -1.000000 0.000000 0.050447 0.383337
2.882327 5.615828 0.191342 0.000000 -1.000000 0.000000 0.028269 0.341844
2.853874 5.615828 0.097546 0.000000 -1.000000 0.000000 0.014612 0.296822
3.359045 5.615828 0.024355 0.000000 -1.000000 0.000000 0.257094 0.261691
3.361553 5.615828 0.045660 -0.000000 -1.000000 0.000000 0.258297 0.271917
3.697820 5.615828 0.353553 0.000000 -1.000000 0.000000 0.419706 0.419706
3.622052 5.615828 0.415735 0.000000 -1.000000 0.000000 0.383337 0.449553
3.806207 5.615828 0.191342 0.000000 -1.000000 0.000000 0.471731 0.341844
3.760002 5.615828 0.277785 0.000000 -1.000000 0.000000 0.449553 0.383337
3.844267 5.615828 -0.000000 0.000000 -1.000000 0.000000 0.490000 0.250000
3.834660 5.615828 0.097545 0.000000 -1.000000 0.000000 0.485388 0.296822
3.594404 5.615828 0.046513 0.000000 -1.000000 0.000000 0.370066 0.272326
3.596511 5.615828 0.024149 0.000000 -1.000000 0.000000 0.371077 0.261591
3.587791 5.615828 0.068388 0.000000 -1.000000 0.000000 0.366892 0.282826
3.369409 5.615828 0.069610 -0.000000 -1.000000 0.000000 0.262068 0.283413
3.577501 5.615828 0.088591 0.000000 -1.000000 0.000000 0.361952 0.292523
3.560714 5.615828 0.109382 0.000000 -1.000000 0.000000 0.353895 0.302503
3.379814 5.615828 0.089804 -0.000000 -1.000000 0.000000 0.267062 0.293106
3.395019 5.615828 0.107845 -0.000000 -1.000000 0.000000 0.274361 0.301765
3.543146 5.615828 0.123484 -0.000000 -1.000000 -0.000000 0.345462 0.309272
3.413187 5.615828 0.123061 -0.000000 -1.000000 0.000000 0.283081 0.309069
3.434921 5.615828 0.133089 -0.000000 -1.000000 0.000000 0.293514 0.313883
3.523410 5.615828 0.133398 -0.000000 -1.000000 -0.000000 0.335989 0.314031
3.502246 5.615828 0.140127 -0.000000 -1.000000 -0.000000 0.325830 0.317261
3.454597 5.615828 0.139402 -0.000000 -1.000000 0.000000 0.302959 0.316913
3.477764 5.615828 0.142009 -0.000000 -1.000000 -0.000000 0.314079 0.318164
3.152926 8.615828 0.461940 -0.290283 -0.000000 0.956941 0.062500 0.500000
3.152926 5.615828 0.461940 -0.290283 -0.000000 0.956941 0.062500 1.000000
3.246722 5.615828 0.490393 -0.290283 -0.000000 0.956941 0.031250 1.000000
3.246722 8.615828 0.490393 -0.290283 -0.000000 0.956941 0.031250 0.500000
3.246722 8.615828 0.490393 -0.098017 -0.000000 0.995185 0.031250 0.500000
3.246722 5.615828 0.490393 -0.098017 -0.000000 0.995185 0.031250 1.000000
3.344267 5.615828 0.500000 -0.098017 -0.000000 0.995185 0.000000 1.000000
3.344267 8.615828 0.500000 -0.098017 -0.000000 0.995185 0.000000 0.500000
3.246722 8.615828 0.490393 0.000000 1.000000 0.000000 0.703179 0.485389
3.344267 8.615828 0.500000 0.000000 1.000000 0.000000 0.750000 0.490000
3.441812 8.615828 0.490393 0.000000 1.000000 0.000000 0.796822 0.485388
3.535609 8.615828 0.461940 0.000000 1.000000 0.000000 0.841844 0.471731
3.622052 8.615828 0.415735 0.000000 1.000000 0.000000 0.883337 0.449553
3.697820 8.615828 0.353553 0.000000 1.000000 0.000000 0.919706 0.419706
3.760002 8.615828 0.277785 0.000000 1.000000 0.000000 0.949553 0.383337
3.806207 8.615828 0.191342 0.000000 1.000000 0.000000 0.971731 0.341844
3.834660 8.615828 0.097545 0.000000 1.000000 0.000000 0.985388 0.296822
3.844267 8.615828 0.000000 -0.000000 1.000000 -0.000000 0.990000 0.250000
3.655759 8.615828 0.000274 -0.000000 1.000000 -0.000000 0.899516 0.250131
3.654845 8.615828 0.011585 -0.000000 1.000000 0.000000 0.899078 0.255561
3.066482 8.615828 0.415735 0.000000 1.000000 0.000000 0.616663 0.449553
3.152926 8.615828 0.461940 0.000000 1.000000 0.000000 0.658156 0.471731
2.928532 8.615828 0.277786 0.000000 1.000000 0.000000 0.550447 0.383337
2.990714 8.615828 0.353554 0.000000 1.000000 0.000000 0.580295 0.419706
2.853874 8.615828 0.097546 0.000000 1.000000 0.000000 0.514612 0.296822
2.882327 8.615828 0.191342 0.000000 1.000000 0.000000 0.528269 0.341844
3.538771 8.615828 0.011647 -0.000000 1.000000 0.000000 0.843362 0.255591
3.537419 8.615828 0.000416 -0.000000 1.000000 0.000000 0.842713 0.250200
3.542311 8.615828 0.022777 -0.000000 1.000000 0.000000 0.845061 0.260933
3.651385 8.615828 0.022985 -0.000000 1.000000 -0.000000 0.897417 0.261033
3.547625 8.615828 0.033254 -0.000000 1.000000 0.000000 0.847612 0.265962
3.554284 8.615828 0.041149 -0.000000 1.000000 0.000000 0.850808 0.269751
3.646098 8.615828 0.033128 -0.000000 1.000000 -0.000000 0.894878 0.265902
3.638644 8.615828 0.041548 -0.000000 1.000000 -0.000000 0.891301 0.269943
3.562658 8.615828 0.048249 -0.000000 1.000000 0.000000 0.854828 0.273159
3.629499 8.615828 0.049125 -0.000000 1.000000 -0.000000 0.886912 0.273580
3.618644 8.615828 0.054861 -0.000000 1.000000 -0.000000 0.881701 0.276333
3.572886 8.615828 0.054385 -0.000000 1.000000 0.000000 0.859737 0.276105
3.584743 8.615828 0.057855 -0.000000 1.000000 0.000000 0.865429 0.277770
3.607762 8.615828 0.057893 -0.000000 1.000000 0.000000 0.876478 0.277789
3.595776 8.615828 0.059078 -0.000000 1.000000 0.000000 0.870724 0.278357
3.834660 5.615828 -0.097545 0.000000 -1.000000 -0.000000 0.485388 0.203178
3.593982 5.615828 0.001102 0.000000 -1.000000 0.000000 0.369863 0.250529
3.760002 5.615828 -0.277785 0.000000 -1.000000 0.000000 0.449553 0.116663
3.806207 5.615828 -0.191342 0.000000 -1.000000 0.000000 0.471731 0.158156
3.622052 5.615828 -0.415735 0.000000 -1.000000 0.000000 0.383337 0.050447
3.697820 5.615828 -0.353553 0.000000 -1.000000 0.000000 0.419706 0.080294
3.441812 5.615828 -0.490393 0.000000 -1.000000 0.000000 0.296822 0.014612
3.535609 5.615828 -0.461940 0.000000 -1.000000 0.000000 0.341844 0.028269
3.246722 5.615828 -0.490393 -0.000000 -1.000000 0.000000 0.203178 0.014612
3.344267 5.615828 -0.500000 -0.000000 -1.000000 0.000000 0.250000 0.010000
3.066482 5.615828 -0.415735 0.000000 -1.000000 0.000000 0.116663 0.050447
3.152925 5.615828 -0.461940 0.000000 -1.000000 0.000000 0.158156 0.028269
2.928532 5.615828 -0.277785 0.000000 -1.000000 0.000000 0.050447 0.116663
2.990713 5.615828 -0.353553 0.000000 -1.000000 0.000000 0.080294 0.080294
2.853874 5.615828 -0.097545 0.000000 -1.000000 0.000000 0.014611 0.203179
2.882327 5.615828 -0.191341 0.000000 -1.000000 0.000000 0.028269 0.158156
2.844267 5.615828 0.000000 0.000000 -1.000000 0.000000 0.010000 0.250000
3.362411 5.615828 -0.000538 0.000000 -1.000000 0.000000 0.258709 0.249742
3.368491 5.615828 -0.021162 0.000000 -1.000000 0.000000 0.261628 0.239842
3.587769 5.615828 -0.020502 0.000000 -1.000000 0.000000 0.366881 0.240159
3.577347 5.615828 -0.040679 0.000000 -1.000000 0.000000 0.361878 0.230474
3.379807 5.615828 -0.041334 0.000000 -1.000000 0.000000 0.267059 0.230160
3.395051 5.615828 -0.060107 0.000000 -1.000000 0.000000 0.274376 0.221149
3.562860 5.615828 -0.059795 0.000000 -1.000000 -0.000000 0.354925 0.221298
3.412838 5.615828 -0.073526 0.000000 -1.000000 0.000000 0.282914 0.214708
3.543125 5.615828 -0.075067 0.000000 -1.000000 -0.000000 0.345452 0.213968
3.522062 5.615828 -0.086764 0.000000 -1.000000 -0.000000 0.335342 0.208353
3.433855 5.615828 -0.086172 0.000000 -1.000000 0.000000 0.293002 0.208637
3.455371 5.615828 -0.093011 0.000000 -1.000000 0.000000 0.303330 0.205355
3.501171 5.615828 -0.092393 0.000000 -1.000000 -0.000000 0.325314 0.205651
3.479218 5.615828 -0.095209 0.000000 -1.000000 0.000000 0.314777 0.204299
2.844267 8.615828 0.000001 0.000000 1.000000 0.000000 0.510000 0.250000
3.538836 8.615828 -0.011253 0.000000 1.000000 0.000000 0.843393 0.244598
2.882327 8.615828 -0.191341 0.000000 1.000000 0.000000 0.528269 0.158156
2.853874 8.615828 -0.097545 0.000000 1.000000 0.000000 0.514611 0.203179
2.990713 8.615828 -0.353553 0.000000 1.000000 0.000000 0.580294 0.080294
2.928532 8.615828 -0.277785 0.000000 1.000000 0.000000 0.550447 0.116663
3.319593 8.615828 -0.362156 -0.000000 1.000000 0.000000 0.738156 0.076165
3.066482 8.615828 -0.415735 -0.000000 1.000000 0.000000 0.616663 0.050447
3.319978 8.615828 -0.358254 -0.000000 1.000000 0.000000 0.738341 0.078038
3.541582 8.615828 -0.022252 0.000000 1.000000 0.000000 0.844712 0.239319
3.547520 8.615828 -0.032889 0.000000 1.000000 0.000000 0.847562 0.234213
3.321116 8.615828 -0.354502 -0.000000 1.000000 0.000000 0.738885 0.079836
3.554436 8.615828 -0.041867 0.000000 1.000000 0.000000 0.850881 0.229904
3.563616 8.615828 -0.048567 0.000000 1.000000 0.000000 0.855287 0.226688
3.322964 8.615828 -0.351044 -0.000000 1.000000 0.000000 0.739773 0.081497
3.325451 8.615828 -0.348014 -0.000000 1.000000 0.000000 0.740969 0.082954
3.573897 8.615828 -0.054483 0.000000 1.000000 0.000000 0.860223 0.223848
3.584896 8.615828 -0.057937 0.000000 1.000000 0.000000 0.865502 0.222190
3.328482 8.615828 -0.345526 -0.000000 1.000000 0.000000 0.742422 0.084146
3.331940 8.615828 -0.343678 -0.000000 1.000000 0.000000 0.744085 0.085036
3.596390 8.615828 -0.059125 0.000000 1.000000 0.000000 0.871019 0.221620
3.335692 8.615828 -0.342540 -0.000000 1.000000 0.000000 0.745881 0.085578
3.607800 8.615828 -0.057897 0.000000 1.000000 0.000000 0.876496 0.222210
3.339593 8.615828 -0.342156 -0.000000 1.000000 0.000000 0.747758 0.085767
3.618920 8.615828 -0.054657 0.000000 1.000000 0.000000 0.881834 0.223764
3.343495 8.615828 -0.342540 0.000000 1.000000 0.000000 0.749630 0.085582
3.629200 8.615828 -0.049272 0.000000 1.000000 0.000000 0.886768 0.226350
3.347247 8.615828 -0.343678 0.000000 1.000000 0.000000 0.751432 0.085036
3.638111 8.615828 -0.041794 0.000000 1.000000 0.000000 0.891045 0.229939
3.350705 8.615828 -0.345526 0.000000 1.000000 0.000000 0.753089 0.084147
3.353735 8.615828 -0.348014 0.000000 1.000000 0.000000 0.754547 0.082955
3.356223 8.615828 -0.351044 0.000000 1.000000 0.000000 0.755741 0.081501
3.358071 8.615828 -0.354502 0.000000 1.000000 0.000000 0.756630 0.079844
3.622052 8.615828 -0.415735 0.000000 1.000000 0.000000 0.883337 0.050447
3.359594 8.615828 -0.362156 0.000000 1.000000 0.000000 0.757355 0.076163
3.359209 8.615828 -0.358254 0.000000 1.000000 0.000000 0.757172 0.078038
3.760002 8.615828 -0.277785 0.000000 1.000000 0.000000 0.949553 0.116663
3.697820 8.615828 -0.353553 0.000000 1.000000 0.000000 0.919706 0.080294
3.834660 8.615828 -0.097545 0.000000 1.000000 0.000000 0.985388 0.203178
3.806207 8.615828 -0.191342 0.000000 1.000000 0.000000 0.971731 0.158156
3.654789 8.615828 -0.010968 0.000000 1.000000 0.000000 0.899050 0.244736
3.645680 8.615828 -0.033165 0.000000 1.000000 0.000000 0.894678 0.234081
3.651055 8.615828 -0.022883 0.000000 1.000000 0.000000 0.897258 0.239016
2.844267 5.615828 0.000000 -0.995185 0.000000 -0.098012 0.250000 1.000000
2.844267 8.324207 0.000001 -0.995185 0.000000 -0.098012 0.250000 0.548603
2.846621 8.326978 -0.023898 -0.995185 0.000000 -0.098012 0.257656 0.548142
2.844267 5.615828 0.000000 -0.995185 -0.000000 -0.098019 0.250000 1.000000
2.846621 8.326978 -0.023898 -0.995185 -0.000000 -0.098019 0.257656 0.548142
2.848744 8.332850 -0.045461 -0.995185 -0.000000 -0.098019 0.264564 0.547163
2.853874 8.374945 -0.097545 -0.995185 0.000000 -0.098017 0.281250 0.540147
2.853874 5.615828 -0.097545 -0.995185 0.000000 -0.098017 0.281250 1.000000
2.844267 5.615828 0.000000 -0.995185 0.000000 -0.098017 0.250000 1.000000
2.852442 8.358172 -0.083003 -0.995185 0.000000 -0.098012 0.276591 0.542943
2.853874 8.374945 -0.097545 -0.995185 0.000000 -0.098012 0.281250 0.540147
2.844267 5.615828 0.000000 -0.995185 0.000000 -0.098014 0.250000 1.000000
2.848744 8.332850 -0.045461 -0.995185 0.000000 -0.098014 0.264564 0.547163
2.850737 8.344145 -0.065689 -0.995185 0.000000 -0.098014 0.271045 0.545280
2.850737 8.344145 -0.065689 -0.995184 -0.000000 -0.098027 0.271045 0.545280
2.852442 8.358172 -0.083003 -0.995184 -0.000000 -0.098027 0.276591 0.542943
2.844267 5.615828 0.000000 -0.995184 -0.000000 -0.098027 0.250000 1.000000
2.853874 5.615828 0.097546 -0.995183 -0.000000 0.098032 0.218750 1.000000
2.853874 8.374859 0.097546 -0.995183 -0.000000 0.098032 0.218750 0.540161
2.852523 8.358698 0.083825 -0.995183 -0.000000 0.098032 0.223146 0.542855
2.853874 5.615828 0.097546 -0.995185 -0.000000 0.098016 0.218750 1.000000
2.852523 8.358698 0.083825 -0.995185 -0.000000 0.098016 0.223146 0.542855
2.850723 8.343652 0.065553 -0.995185 -0.000000 0.098016 0.228999 0.545363
2.844267 8.324207 0.000001 -0.995185 -0.000000 0.098019 0.250000 0.548603
2.844267 5.615828 0.000000 -0.995185 -0.000000 0.098019 0.250000 1.000000
2.853874 5.615828 0.097546 -0.995185 -0.000000 0.098019 0.218750 1.000000
2.846562 8.326077 0.023303 -0.995185 -0.000000 0.098016 0.242535 0.548292
2.844267 8.324207 0.000001 -0.995185 -0.000000 0.098016 0.250000 0.548603
2.853874 5.615828 0.097546 -0.995185 -0.000000 0.098012 0.218750 1.000000
2.850723 8.343652 0.065553 -0.995185 -0.000000 0.098012 0.228999 0.545363
2.848768 8.333386 0.045697 -0.995185 -0.000000 0.098012 0.235360 0.547073
2.848768 8.333386 0.045697 -0.995184 0.000000 0.098024 0.235360 0.547073
2.846562 8.326077 0.023303 -0.995184 0.000000 0.098024 0.242535 0.548292
2.853874 5.615828 0.097546 -0.995184 0.000000 0.098024 0.218750 1.000000
3.844267 6.468490 0.000000 0.995185 -0.000000 0.098017 0.750000 0.857890
3.844267 7.323352 0.000000 0.995185 -0.000000 0.098017 0.750000 0.715412
3.839284 7.327902 0.050591 0.995185 -0.000000 0.098017 0.766207 0.714654
3.834660 5.615828 0.097545 0.995185 -0.000000 0.098017 0.781250 1.000000
3.844267 5.615828 -0.000000 0.995185 -0.000000 0.098017 0.750000 1.000000
3.844267 6.310459 0.000000 0.995185 -0.000000 0.098017 0.750000 0.884228
3.834660 5.615828 0.097545 0.995185 0.000000 0.098018 0.781250 1.000000
3.844267 6.310459 0.000000 0.995185 0.000000 0.098018 0.750000 0.884228
3.842699 6.311815 0.015918 0.995185 0.000000 0.098018 0.755100 0.884002
3.834660 7.343553 0.097545 0.995185 0.000000 0.098017 0.781250 0.712046
3.842790 6.466652 0.015000 0.995185 0.000001 0.098011 0.754805 0.858196
3.844267 6.468490 0.000000 0.995185 0.000001 0.098011 0.750000 0.857890
3.834660 7.343553 0.097545 0.995185 0.000001 0.098011 0.781250 0.712046
3.834660 5.615828 0.097545 0.995184 0.000000 0.098020 0.781250 1.000000
3.842699 6.311815 0.015918 0.995184 0.000000 0.098020 0.755100 0.884002
3.841212 6.316332 0.031021 0.995184 0.000000 0.098020 0.759938 0.883249
3.834660 5.615828 0.097545 0.995186 -0.000001 0.098008 0.781250 1.000000
3.841212 6.316332 0.031021 0.995186 -0.000001 0.098008 0.759938 0.883249
3.839940 6.323668 0.043937 0.995186 -0.000001 0.098008 0.764076 0.882027
3.841295 6.462070 0.030174 0.995184 -0.000001 0.098026 0.759667 0.858960
3.842790 6.466652 0.015000 0.995184 -0.000001 0.098026 0.754805 0.858196
3.834660 7.343553 0.097545 0.995184 -0.000001 0.098026 0.781250 0.712046
3.839956 6.455106 0.043769 0.995185 0.000000 0.098011 0.764022 0.860120
3.841295 6.462070 0.030174 0.995185 0.000000 0.098011 0.759667 0.858960
3.834660 7.343553 0.097545 0.995185 0.000000 0.098011 0.781250 0.712046
3.834660 5.615828 0.097545 0.995184 0.000000 0.098022 0.781250 1.000000
3.839940 6.323668 0.043937 0.995184 0.000000 0.098022 0.764076 0.882027
3.838698 6.333799 0.056540 0.995184 0.000000 0.098022 0.768114 0.880338
3.834660 5.615828 0.097545 0.995184 0.000000 0.098021 0.781250 1.000000
3.838698 6.333799 0.056540 0.995184 0.000000 0.098021 0.768114 0.880338
3.837764 6.345765 0.066022 0.995184 0.000000 0.098021 0.771151 0.878344
3.838798 6.445531 0.055528 0.995184 -0.000000 0.098024 0.767789 0.861716
3.839956 6.455106 0.043769 0.995184 -0.000000 0.098024 0.764022 0.860120
3.834660 7.343553 0.097545 0.995184 -0.000000 0.098024 0.781250 0.712046
3.837825 6.433554 0.065409 0.995184 -0.000000 0.098021 0.770955 0.863712
3.838798 6.445531 0.055528 0.995184 -0.000000 0.098021 0.767789 0.861716
3.834660 7.343553 0.097545 0.995184 -0.000000 0.098021 0.781250 0.712046
3.834660 5.615828 0.097545 0.995186 -0.000000 0.098005 0.781250 1.000000
3.837764 6.345765 0.066022 0.995186 -0.000000 0.098005 0.771151 0.878344
3.837015 6.360798 0.073626 0.995186 -0.000000 0.098005 0.773587 0.875838
3.834660 5.615828 0.097545 0.995184 0.000000 0.098019 0.781250 1.000000
3.837015 6.360798 0.073626 0.995184 0.000000 0.098019 0.773587 0.875838
3.836626 6.375324 0.077577 0.995184 0.000000 0.098019 0.774853 0.873417
3.837104 6.420025 0.072729 0.995185 -0.000000 0.098016 0.773300 0.865967
3.837825 6.433554 0.065409 0.995185 -0.000000 0.098016 0.770955 0.863712
3.834660 7.343553 0.097545 0.995185 -0.000000 0.098016 0.781250 0.712046
3.836659 6.405610 0.077243 0.995188 0.000001 0.097984 0.774746 0.868370
3.837104 6.420025 0.072729 0.995188 0.000001 0.097984 0.773300 0.865967
3.834660 7.343553 0.097545 0.995188 0.000001 0.097984 0.781250 0.712046
3.834660 5.615828 0.097545 0.995186 -0.000000 0.098008 0.781250 1.000000
3.836626 6.375324 0.077577 0.995186 -0.000000 0.098008 0.774853 0.873417
3.836472 6.389493 0.079146 0.995186 -0.000000 0.098008 0.775355 0.871056
3.836472 6.389493 0.079146 0.995185 0.000000 0.098014 0.775355 0.871056
3.836659 6.405610 0.077243 0.995185 0.000000 0.098014 0.774746 0.868370
3.834660 7.343553 0.097545 0.995185 0.000000 0.098014 0.781250 0.712046
3.834660 7.343553 0.097545 0.995184 -0.000000 0.098019 0.781250 0.712046
3.836472 6.389493 0.079146 0.995184 -0.000000 0.098019 0.775355 0.871056
3.839796 7.327473 -0.045394 0.995185 0.000000 -0.098016 0.735457 0.714726
3.844267 7.323352 0.000000 0.995185 0.000000 -0.098016 0.750000 0.715412
3.844267 6.468490 0.000000 0.995185 0.000000 -0.098016 0.750000 0.857890
3.839796 7.327473 -0.045394 0.995184 -0.000000 -0.098020 0.735457 0.714726
3.844267 6.468490 0.000000 0.995184 -0.000000 -0.098020 0.750000 0.857890
3.842824 6.466999 -0.014647 0.995184 -0.000000 -0.098020 0.745307 0.858138
3.844267 6.310459 0.000000 0.995185 0.000000 -0.098017 0.750000 0.884228
3.844267 5.615828 -0.000000 0.995185 0.000000 -0.098017 0.750000 1.000000
3.834660 5.615828 -0.097545 0.995185 0.000000 -0.098017 0.718750 1.000000
3.842810 6.311552 -0.014796 0.995185 -0.000001 -0.098010 0.745260 0.884046
3.844267 6.310459 0.000000 0.995185 -0.000001 -0.098010 0.750000 0.884228
3.834660 5.615828 -0.097545 0.995185 -0.000001 -0.098010 0.718750 1.000000
3.834660 7.343753 -0.097545 0.995185 -0.000000 -0.098018 0.718750 0.712012
3.839796 7.327473 -0.045394 0.995185 -0.000000 -0.098018 0.735457 0.714726
3.842824 6.466999 -0.014647 0.995185 -0.000000 -0.098018 0.745307 0.858138
3.834660 7.343753 -0.097545 0.995185 -0.000000 -0.098017 0.718750 0.712012
3.842824 6.466999 -0.014647 0.995185 -0.000000 -0.098017 0.745307 0.858138
3.841281 6.462762 -0.030317 0.995185 -0.000000 -0.098017 0.740288 0.858844
3.841337 6.316214 -0.029744 0.995185 -0.000000 -0.098017 0.740471 0.883269
3.842810 6.311552 -0.014796 0.995185 -0.000000 -0.098017 0.745260 0.884046
3.839884 6.324124 -0.044497 0.995184 0.000001 -0.098026 0.735745 0.881951
3.841337 6.316214 -0.029744 0.995184 0.000001 -0.098026 0.740471 0.883269
3.834660 5.615828 -0.097545 0.995184 0.000001 -0.098026 0.718750 1.000000
3.834660 7.343753 -0.097545 0.995185 0.000000 -0.098015 0.718750 0.712012
3.841281 6.462762 -0.030317 0.995185 0.000000 -0.098015 0.740288 0.858844
3.839992 6.455637 -0.043408 0.995185 0.000000 -0.098015 0.736094 0.860032
3.834660 7.343753 -0.097545 0.995184 -0.000001 -0.098025 0.718750 0.712012
3.839992 6.455637 -0.043408 0.995184 -0.000001 -0.098025 0.736094 0.860032
3.838751 6.445423 -0.055999 0.995184 -0.000001 -0.098025 0.732060 0.861734
3.838752 6.333987 -0.055990 0.995184 0.000000 -0.098020 0.732063 0.880307
3.839884 6.324124 -0.044497 0.995184 0.000000 -0.098020 0.735745 0.881951
3.834660 5.615828 -0.097545 0.995184 0.000000 -0.098020 0.718750 1.000000
3.837801 6.345315 -0.065645 0.995186 -0.000000 -0.098009 0.728970 0.878419
3.838752 6.333987 -0.055990 0.995186 -0.000000 -0.098009 0.732063 0.880307
3.834660 5.615828 -0.097545 0.995186 -0.000000 -0.098009 0.718750 1.000000
3.834660 7.343753 -0.097545 0.995187 0.000001 -0.097998 0.718750 0.712012
3.838751 6.445423 -0.055999 0.995187 0.000001 -0.097998 0.732060 0.861734
3.837802 6.433344 -0.065638 0.995187 0.000001 -0.097998 0.728972 0.863747
3.834660 7.343753 -0.097545 0.995183 -0.000001 -0.098035 0.718750 0.712012
3.837802 6.433344 -0.065638 0.995183 -0.000001 -0.098035 0.728972 0.863747
3.837064 6.419865 -0.073131 0.995183 -0.000001 -0.098035 0.726571 0.865994
3.837080 6.358969 -0.072965 0.995185 -0.000000 -0.098011 0.726624 0.876143
3.837801 6.345315 -0.065645 0.995185 -0.000000 -0.098011 0.728970 0.878419
3.834660 5.615828 -0.097545 0.995185 -0.000000 -0.098011 0.718750 1.000000
3.836617 6.373859 -0.077673 0.995184 0.000000 -0.098028 0.725116 0.873661
3.837080 6.358969 -0.072965 0.995184 0.000000 -0.098028 0.726624 0.876143
3.834660 5.615828 -0.097545 0.995184 0.000000 -0.098028 0.718750 1.000000
3.834660 7.343753 -0.097545 0.995184 -0.000000 -0.098022 0.718750 0.712012
3.837064 6.419865 -0.073131 0.995184 -0.000000 -0.098022 0.726571 0.865994
3.836630 6.405238 -0.077542 0.995184 -0.000000 -0.098022 0.725158 0.868432
3.836458 6.389519 -0.079280 0.995183 0.000001 -0.098038 0.724602 0.871051
3.836617 6.373859 -0.077673 0.995183 0.000001 -0.098038 0.725116 0.873661
3.834660 5.615828 -0.097545 0.995183 0.000001 -0.098038 0.718750 1.000000
3.834660 7.343753 -0.097545 0.995187 0.000000 -0.097996 0.718750 0.712012
3.836630 6.405238 -0.077542 0.995187 0.000000 -0.097996 0.725158 0.868432
3.836458 6.389519 -0.079280 0.995187 0.000000 -0.097996 0.724602 0.871051
3.834660 7.343753 -0.097545 0.995185 0.000000 -0.098013 0.718750 0.712012
3.836458 6.389519 -0.079280 0.995185 0.000000 -0.098013 0.724602 0.871051
3.834660 5.615828 -0.097545 0.995185 0.000000 -0.098013 0.718750 1.000000
3.806207 5.615828 -0.191342 0.956941 0.000000 -0.290281 0.687500 1.000000
3.806207 7.414686 -0.191342 0.956941 0.000000 -0.290281 0.687500 0.700190
3.812652 7.391603 -0.170094 0.956941 0.000000 -0.290281 0.694579 0.704037
3.823030 7.363239 -0.135883 0.956940 0.000000 -0.290286 0.705977 0.708765
3.834660 7.343753 -0.097545 0.956940 0.000000 -0.290286 0.718750 0.712012
3.834660 5.615828 -0.097545 0.956940 0.000000 -0.290286 0.718750 1.000000
3.806207 5.615828 -0.191342 0.956940 0.000000 -0.290286 0.687500 1.000000
3.812652 7.391603 -0.170094 0.956940 0.000000 -0.290286 0.694579 0.704037
3.823030 7.363239 -0.135883 0.956940 0.000000 -0.290285 0.705977 0.708765
3.834660 5.615828 -0.097545 0.956940 0.000000 -0.290285 0.718750 1.000000
3.806207 5.615828 -0.191342 0.956940 0.000000 -0.290285 0.687500 1.000000
3.834660 5.615828 0.097545 0.956940 -0.000000 0.290285 0.781250 1.000000
3.834660 7.343553 0.097545 0.956940 -0.000000 0.290285 0.781250 0.712046
3.822684 7.363831 0.137022 0.956940 -0.000000 0.290285 0.794403 0.708666
3.811241 7.394971 0.174747 0.956941 -0.000000 0.290281 0.806971 0.703476
3.806207 7.415812 0.191342 0.956941 -0.000000 0.290281 0.812500 0.700003
3.806207 5.615828 0.191342 0.956941 -0.000000 0.290281 0.812500 1.000000
3.834660 5.615828 0.097545 0.956940 -0.000000 0.290287 0.781250 1.000000
3.822684 7.363831 0.137022 0.956940 -0.000000 0.290287 0.794403 0.708666
3.811241 7.394971 0.174747 0.956940 -0.000000 0.290287 0.806971 0.703476
3.811241 7.394971 0.174747 0.956940 0.000000 0.290285 0.806971 0.703476
3.806207 5.615828 0.191342 0.956940 0.000000 0.290285 0.812500 1.000000
3.152925 8.615828 -0.461940 0.000000 1.000000 0.000000 0.658156 0.028269
3.319978 8.615828 -0.366058 0.000000 1.000000 0.000000 0.738343 0.074294
3.344267 8.615828 -0.500000 0.000000 1.000000 0.000000 0.750000 0.010000
3.246722 8.615828 -0.490393 0.000000 1.000000 0.000000 0.703178 0.014612
3.535609 8.615828 -0.461940 0.000000 1.000000 0.000000 0.841844 0.028269
3.441812 8.615828 -0.490393 0.000000 1.000000 0.000000 0.796822 0.014612
3.359209 8.615828 -0.366058 0.000000 1.000000 0.000000 0.757169 0.074289
3.321116 8.615828 -0.369809 0.000000 1.000000 0.000000 0.738887 0.072491
3.322964 8.615828 -0.373267 0.000000 1.000000 0.000000 0.739774 0.070831
3.358071 8.615828 -0.369809 0.000000 1.000000 0.000000 0.756622 0.072487
3.356223 8.615828 -0.373267 0.000000 1.000000 0.000000 0.755734 0.070827
3.325451 8.615828 -0.376298 0.000000 1.000000 0.000000 0.740967 0.069375
3.328482 8.615828 -0.378785 0.000000 1.000000 0.000000 0.742424 0.068183
3.353735 8.615828 -0.376298 0.000000 1.000000 0.000000 0.754544 0.069376
3.350705 8.615828 -0.378785 0.000000 1.000000 0.000000 0.753086 0.068178
3.331940 8.615828 -0.380633 0.000000 1.000000 0.000000 0.744088 0.067301
3.335692 8.615828 -0.381772 0.000000 1.000000 0.000000 0.745876 0.066741
3.347247 8.615828 -0.380633 0.000000 1.000000 0.000000 0.751428 0.067293
3.343495 8.615828 -0.381772 0.000000 1.000000 0.000000 0.749628 0.066748
3.339593 8.615828 -0.382156 0.000000 1.000000 0.000000 0.747757 0.066565
3 0 1 2
3 0 2 3
3 4 5 6
3 4 6 7
3 8 9 10
3 8 10 11
3 12 13 14
3 12 14 15
3 16 17 18
3 16 18 19
3 20 21 22
3 23 24 25
3 26 27 28
3 29 30 31
3 32 33 34
3 35 36 37
3 38 39 40
3 41 42 28
3 43 44 45
3 46 47 48
3 49 50 51
3 52 53 54
3 55 56 57
3 58 59 60
3 61 62 63
3 64 65 66
3 67 68 69
3 70 71 72
3 73 74 75
3 76 77 78
3 79 80 81
3 82 83 84
3 85 86 87
3 88 89 90
3 91 92 82
3 93 94 95
3 96 97 98
3 99 100 101
3 102 103 104
3 105 106 107
3 108 109 110
3 111 112 113
3 114 115 116
3 117 118 119
3 120 121 101
3 122 104 123
3 124 125 126
3 124 126 127
3 128 129 130
3 128 130 131
3 132 133 134
3 132 134 135
3 136 137 138
3 136 138 139
3 140 141 142
3 140 142 143
3 144 145 146
3 144 146 147
3 148 149 150
3 148 150 151
3 152 153 154
3 152 154 155
3 156 157 158
3 156 158 159
3 160 161 162
3 160 162 163
3 164 165 166
3 164 166 167
3 168 169 170
3 171 172 173
3 174 175 176
3 177 178 168
3 179 177 168
3 168 170 180
3 181 182 183
3 184 185 186
3 187 188 189
3 190 191 192
3 193 194 195
3 196 197 193
3 198 199 190
3 190 200 201
3 193 202 203
3 204 205 206
3 207 208 209
3 210 211 212
3 213 214 215
3 216 217 218
3 219 220 221
3 222 223 224
3 225 226 227
3 228 229 222
3 230 231 232
3 233 234 235
3 236 237 238
3 239 240 241
3 242 243 244
3 245 228 222
3 246 247 248
3 246 248 249
3 250 251 252
3 250 252 253
3 254 255 256
3 254 256 257
3 258 259 260
3 258 260 261
3 262 263 264
3 264 265 266
3 266 267 268
3 268 269 270
3 270 271 272
3 270 272 273
3 266 268 270
3 262 264 266
3 274 275 262
3 276 277 274
3 278 279 276
3 280 281 278
3 282 280 278
3 278 276 274
3 274 262 266
3 266 270 273
3 266 273 283
3 278 274 266
3 284 282 278
3 285 284 278
3 266 283 286
3 266 286 287
3 285 278 266
3 288 285 266
3 266 287 289
3 266 289 290
3 291 288 266
3 292 291 266
3 266 290 293
3 294 292 266
3 266 293 294
3 295 296 297
3 295 297 298
3 299 300 301
3 299 301 302
3 303 304 305
3 305 306 307
3 307 308 309
3 309 310 311
3 311 312 313
3 311 313 314
3 307 309 311
3 303 305 307
3 315 316 303
3 317 318 315
3 319 320 317
3 321 322 319
3 323 321 319
3 319 317 315
3 315 303 307
3 307 311 314
3 307 314 324
3 319 315 307
3 325 323 319
3 326 325 319
3 307 324 327
3 307 327 328
3 326 319 307
3 329 326 307
3 307 328 330
3 307 330 331
3 332 329 307
3 333 332 307
3 307 331 334
3 335 333 307
3 307 334 335
3 336 278 281
3 336 281 337
3 338 339 336
3 340 341 338
3 342 343 340
3 344 345 342
3 346 347 344
3 348 349 346
3 350 351 348
3 271 352 350
3 353 272 271
3 354 353 271
3 271 350 348
3 348 346 344
3 344 342 340
3 340 338 336
3 336 337 355
3 336 355 356
3 344 340 336
3 271 348 344
3 357 354 271
3 358 357 271
3 344 336 356
3 344 356 359
3 358 271 344
3 360 358 344
3 344 359 361
3 344 361 362
3 363 360 344
3 364 363 344
3 344 362 365
3 366 364 344
3 365 366 344
3 367 319 322
3 367 322 368
3 369 370 367
3 371 372 369
3 373 374 371
3 375 373 371
3 371 369 367
3 367 368 376
3 367 376 377
3 375 371 367
3 378 375 367
3 367 377 379
3 367 379 380
3 381 378 367
3 382 381 367
3 367 380 383
3 367 383 384
3 385 382 367
3 386 385 367
3 367 384 387
3 386 367 387
3 388 386 387
3 388 387 389
3 390 388 389
3 390 389 391
3 392 390 391
3 392 391 393
3 394 392 393
3 394 393 395
3 396 394 395
3 397 396 395
3 398 397 395
3 399 398 395
3 400 401 402
3 402 399 395
3 400 402 395
3 403 404 400
3 405 406 403
3 313 312 405
3 407 313 405
3 405 403 400
3 400 395 408
3 409 407 405
3 400 408 409
3 409 405 400
3 410 411 412
3 413 414 415
3 416 417 418
3 419 420 410
3 421 422 423
3 424 425 426
3 427 428 429
3 430 431 432
3 433 434 435
3 436 437 430
3 438 439 440
3 441 442 443
3 444 445 446
3 447 448 449
3 450 451 452
3 444 446 453
3 454 455 456
3 457 458 459
3 460 461 462
3 463 464 465
3 466 467 468
3 469 470 471
3 472 473 474
3 475 476 477
3 478 479 480
3 481 482 483
3 484 485 486
3 487 488 489
3 490 491 492
3 493 494 495
3 496 497 498
3 499 484 500
3 501 502 503
3 504 505 506
3 507 508 509
3 510 511 512
3 513 514 515
3 516 517 518
3 519 520 509
3 521 522 523
3 524 525 526
3 527 528 529
3 530 531 532
3 533 534 535
3 536 537 538
3 539 540 541
3 542 543 544
3 545 546 547
3 548 549 550
3 551 552 553
3 554 555 556
3 557 558 559
3 560 561 562
3 563 564 565
3 566 567 563
3 568 569 570
3 571 572 573
3 574 575 576
3 577 578 579
3 580 581 571
3 582 374 373
3 582 373 583
3 584 585 582
3 586 587 584
3 401 400 586
3 588 401 586
3 586 584 582
3 582 583 589
3 582 589 590
3 591 588 586
3 592 591 586
3 582 590 593
3 582 593 594
3 595 592 586
3 596 595 586
3 582 594 597
3 582 597 598
3 599 596 586
3 600 599 586
3 586 582 598
3 601 600 586
3 598 601 586
